<svg width="400" height="300" viewBox="0 0 400 300" fill="none" xmlns="http://www.w3.org/2000/svg">
  <rect width="400" height="300" fill="#f0f9ff"/>
  
  <!-- Shopping Cart -->
  <rect x="50" y="180" width="120" height="80" rx="8" fill="#3b82f6" stroke="#1e40af" stroke-width="2"/>
  <rect x="60" y="190" width="100" height="60" rx="4" fill="#dbeafe"/>
  <circle cx="80" cy="270" r="8" fill="#1e293b"/>
  <circle cx="140" cy="270" r="8" fill="#1e293b"/>
  <path d="M70 180 L80 160 L140 160 L150 180" stroke="#1e40af" stroke-width="2" fill="none"/>
  
  <!-- Shopping List Items -->
  <rect x="200" y="50" width="150" height="200" rx="8" fill="#ffffff" stroke="#e5e7eb" stroke-width="2"/>
  
  <!-- List Items -->
  <rect x="210" y="70" width="20" height="20" rx="3" fill="#10b981"/>
  <text x="240" y="85" font-family="Arial, sans-serif" font-size="14" fill="#374151">Milk</text>
  
  <rect x="210" y="100" width="20" height="20" rx="3" fill="#f59e0b"/>
  <text x="240" y="115" font-family="Arial, sans-serif" font-size="14" fill="#374151">Bread</text>
  
  <rect x="210" y="130" width="20" height="20" rx="3" fill="#ef4444"/>
  <text x="240" y="145" font-family="Arial, sans-serif" font-size="14" fill="#374151">Apples</text>
  
  <rect x="210" y="160" width="20" height="20" rx="3" fill="#8b5cf6"/>
  <text x="240" y="175" font-family="Arial, sans-serif" font-size="14" fill="#374151">Eggs</text>
  
  <rect x="210" y="190" width="20" height="20" rx="3" fill="#06b6d4"/>
  <text x="240" y="205" font-family="Arial, sans-serif" font-size="14" fill="#374151">Cheese</text>
  
  <rect x="210" y="220" width="20" height="20" rx="3" fill="#ec4899"/>
  <text x="240" y="235" font-family="Arial, sans-serif" font-size="14" fill="#374151">Coffee</text>
  
  <!-- Decorative Elements -->
  <circle cx="320" cy="80" r="15" fill="#fbbf24" opacity="0.3"/>
  <circle cx="350" cy="120" r="10" fill="#a78bfa" opacity="0.3"/>
  <circle cx="80" cy="40" r="12" fill="#60a5fa" opacity="0.3"/>
  
  <!-- Checkmarks -->
  <path d="M214 80 L217 83 L226 74" stroke="white" stroke-width="2" fill="none"/>
  <path d="M214 110 L217 113 L226 104" stroke="white" stroke-width="2" fill="none"/>
</svg>
